#!OML:ASF X:\für Bonn\!DataBase\2005_08_12_Daniel\c3d\Daniel.ASF
:FULLY-SPECIFIED
:DEGREES
200
root 19.8422 1.74324 0.552928 -1258.23 249.867 104.583
lowerback 61.946 -3.57321 20.4381
upperback 13.9109 5.6951 0.742279
thorax -3.31115 2.13608 -9.66068
lowerneck 10.2456 15.1148 4.66323
upperneck 10.087 20.7209 -9.53226
head 2.92379 10.179 -3.44618
rclavicle 3.97569e-016 -2.54444e-014
rhumerus -319.568 46.399 294.043
rradius 58.1381
rwrist 5.29106
rhand -9.2901 736.829
rfingers 7.12502
rthumb 16.6672 707.525
lclavicle 3.97569e-016 -2.54444e-014
lhumerus -417.065 -2.9285 -266.141
lradius 63.8139
lwrist 25.9506
lhand -73.0258 -600.264
lfingers 7.12502
lthumb -44.4379 -263.982
rfemur -88.3927 -52.4606 47.4775
rtibia 122.08
rfoot 408.109 8.21834
rtoes 18.8129
lfemur -70.5423 45.4334 -57.592
ltibia 133.893
lfoot 5.77017 -4.99697
ltoes 2.63798
201
root 19.8473 1.72284 0.531995 -1257.76 250.159 103.651
lowerback 61.6608 -3.37541 20.06
upperback 14.0959 5.59068 0.879871
thorax -3.19544 2.06367 -9.3415
lowerneck 10.7757 15.1887 4.81557
upperneck 9.44873 20.7936 -9.62334
head 2.68115 10.2555 -3.55705
rclavicle 7.99114e-014 -4.77083e-014
rhumerus -321.588 45.6965 292.705
rradius 58.912
rwrist 4.94055
rhand -10.4421 736.803
rfingers 7.12502
rthumb 15.5579 707.409
lclavicle 7.99114e-014 -4.77083e-014
lhumerus -418.559 -3.52817 -265.416
lradius 65.6557
lwrist 25.4179
lhand -73.6841 -598.293
lfingers 7.12502
lthumb -45.0508 -261.773
rfemur -87.3839 -52.7167 47.1763
rtibia 121.779
rfoot 407.366 7.00773
rtoes 18.9189
lfemur -70.7093 45.8637 -57.3403
ltibia 134.089
lfoot 5.72505 -4.83665
ltoes 2.50147
202
root 19.854 1.70303 0.510941 -1257.35 250.477 102.741
lowerback 61.4057 -3.15157 19.6495
upperback 14.2932 5.49785 0.991341
thorax -3.06615 1.99761 -9.04229
lowerneck 11.294 15.2654 4.999
upperneck 8.79733 20.8772 -9.75332
head 2.44504 10.3371 -3.68235
rclavicle 5.42682e-014 -7.31528e-014
rhumerus -323.638 44.9852 291.468
rradius 59.8235
rwrist 4.49254
rhand -11.4855 736.78
rfingers 7.12502
rthumb 14.5527 707.311
lclavicle 5.42682e-014 -7.31528e-014
lhumerus -419.978 -4.0841 -264.79
lradius 67.3681
lwrist 24.658
lhand -74.4034 -598.845
lfingers 7.12502
lthumb -45.7194 -262.055
rfemur -86.2145 -52.9805 46.7296
rtibia 121.448
rfoot 406.697 5.69167
rtoes 19.1904
lfemur -70.8515 46.3677 -57.0862
ltibia 134.278
lfoot 5.67392 -4.70289
ltoes 2.22553
203
root 19.8603 1.6843 0.483116 -1257.01 250.787 101.925
lowerback 61.175 -2.86625 19.1494
upperback 14.4755 5.43213 1.09806
thorax -2.96394 1.93719 -8.72456
lowerneck 11.7238 15.3472 5.18186
upperneck 8.19674 20.9728 -9.85236
head 2.23614 10.4202 -3.78962
rclavicle -3.97569e-014 -4.77083e-014
rhumerus -325.704 44.2703 290.316
rradius 60.8395
rwrist 4.00311
rhand -12.2774 736.764
rfingers 7.12502
rthumb 13.7897 707.241
lclavicle -3.97569e-014 -4.77083e-014
lhumerus -421.361 -4.65274 -264.248
lradius 69.025
lwrist 23.8525
lhand -74.9887 -607.921
lfingers 7.12502
lthumb -46.2624 -89.0946
rfemur -84.9966 -53.138 46.2335
rtibia 121.093
rfoot 405.978 4.16996
rtoes 19.4999
lfemur -71.1116 46.8427 -56.903
ltibia 134.512
lfoot 5.64783 -4.53318
ltoes 1.95107
204
root 19.8703 1.67014 0.446103 -1256.71 251.109 101.131
lowerback 61.0216 -2.46656 18.5073
upperback 14.6338 5.43775 1.25516
thorax -2.90658 1.89101 -8.3199
lowerneck 12.0699 15.4365 5.33849
upperneck 7.64897 21.0814 -9.96039
head 2.05562 10.5044 -3.88707
rclavicle -3.75703e-014 2.22639e-014
rhumerus -327.754 43.618 289.428
rradius 61.9994
rwrist 3.4471
rhand -12.8617 736.819
rfingers 7.12502
rthumb 13.2265 707.258
lclavicle -3.75703e-014 2.22639e-014
lhumerus -422.743 -5.18216 -263.745
lradius 70.6573
lwrist 22.9186
lhand -75.1961 -628.918
lfingers 7.12502
lthumb -46.4546 -68.1792
rfemur -83.6495 -53.1891 45.6996
rtibia 120.686
rfoot 405.174 2.71196
rtoes 19.6529
lfemur -71.3217 47.5312 -56.574
ltibia 134.752
lfoot 5.68742 -4.53255
ltoes 1.69353
205
root 19.8831 1.66287 0.404827 -1256.5 251.437 100.415
lowerback 60.8731 -2.00129 17.774
upperback 14.8008 5.46787 1.42629
thorax -2.85083 1.84934 -7.87211
lowerneck 12.2937 15.5351 5.47942
upperneck 7.20781 21.2079 -10.05
head 1.92394 10.5901 -3.96227
rclavicle -1.94809e-014 6.36111e-015
rhumerus -329.781 43.011 288.696
rradius 63.2648
rwrist 2.90827
rhand -13.1278 736.844
rfingers 7.12502
rthumb 12.97 707.267
lclavicle -1.94809e-014 6.36111e-015
lhumerus -424.048 -5.64909 -263.34
lradius 72.2137
lwrist 21.8296
lhand -74.576 -787.596
lfingers 7.12502
lthumb -45.8796 -44.4515
rfemur -82.2129 -53.1897 45.1185
rtibia 120.243
rfoot 404.301 1.53019
rtoes 19.3945
lfemur -71.4374 48.3942 -56.1115
ltibia 134.982
lfoot 5.79162 -4.72432
ltoes 1.61596
206
root 19.899 1.65957 0.364095 -1256.27 251.766 99.6721
lowerback 60.7128 -1.53685 17.0746
upperback 14.9785 5.5157 1.57023
thorax -2.76999 1.82237 -7.47151
lowerneck 12.3681 15.631 5.62505
upperneck 6.84969 21.3369 -10.0796
head 1.83424 10.6711 -4.00494
rclavicle 9.08446e-014 -3.81667e-014
rhumerus -331.74 42.4104 288.133
rradius 64.544
rwrist 2.33071
rhand -13.1799 736.93
rfingers 7.12502
rthumb 12.9197 707.35
lclavicle 9.08446e-014 -3.81667e-014
lhumerus -425.336 -6.07034 -263.058
lradius 73.731
lwrist 20.4376
lhand -73.3117 -773.355
lfingers 7.12502
lthumb -44.7042 -29.7401
rfemur -80.7247 -53.1584 44.5371
rtibia 119.752
rfoot 403.435 0.516021
rtoes 18.8789
lfemur -71.4644 49.3818 -55.5522
ltibia 135.203
lfoot 5.90256 -5.05968
ltoes 1.54376
207
root 19.9168 1.65793 0.32985 -1256.17 252.112 99.061
lowerback 60.5025 -1.10354 16.3915
upperback 15.1601 5.53215 1.67222
thorax -2.67929 1.78764 -7.1112
lowerneck 12.4255 15.7343 5.68587
upperneck 6.53171 21.4654 -10.0876
head 1.7485 10.7471 -4.02883
rclavicle 4.85035e-014 -5.725e-014
rhumerus -333.582 41.9685 287.774
rradius 65.7512
rwrist 1.72956
rhand -13.0837 737.096
rfingers 7.12502
rthumb 13.0125 707.522
lclavicle 4.85035e-014 -5.725e-014
lhumerus -426.599 -6.40545 -262.876
lradius 75.2215
lwrist 18.7457
lhand -71.7371 -766.256
lfingers 7.12502
lthumb -43.2353 -22.0936
rfemur -79.2306 -53.1451 43.8559
rtibia 119.247
rfoot 402.584 -0.47689
rtoes 18.2474
lfemur -71.383 50.3321 -55.0269
ltibia 135.353
lfoot 5.95499 -5.38518
ltoes 1.50194
208
root 19.9369 1.65488 0.299386 -1256.01 252.441 98.3755
lowerback 60.2897 -0.735681 15.7807
upperback 15.3314 5.51914 1.73733
thorax -2.5862 1.74501 -6.80558
lowerneck 12.4928 15.8736 5.56712
upperneck 6.18836 21.6112 -9.97147
head 1.62424 10.8277 -4.00004
rclavicle -3.42904e-014 8.26944e-014
rhumerus -335.383 41.6228 287.43
rradius 66.8217
rwrist 1.26977
rhand -12.8982 737.318
rfingers 7.12502
rthumb 13.1913 707.756
lclavicle -3.42904e-014 8.26944e-014
lhumerus -427.735 -6.69048 -262.813
lradius 76.7447
lwrist 16.7841
lhand -70.1574 -762.291
lfingers 7.12502
lthumb -41.7564 -17.6199
rfemur -77.7023 -53.1211 43.1523
rtibia 118.709
rfoot 401.714 -1.43426
rtoes 17.4105
lfemur -71.2102 51.2423 -54.4374
ltibia 135.472
lfoot 5.99549 -5.6952
ltoes 1.46254
209
root 19.9608 1.64839 0.268851 -1255.92 252.786 97.7725
lowerback 60.1537 -0.412748 15.2359
upperback 15.4623 5.5087 1.7331
thorax -2.52201 1.71024 -6.59857
lowerneck 12.5063 15.9846 5.4648
upperneck 5.89159 21.7257 -9.87452
head 1.52251 10.8902 -3.97314
rclavicle 1.26725e-014 3.18055e-014
rhumerus -337.057 41.2206 287.069
rradius 67.6257
rwrist 0.891585
rhand -12.6567 737.694
rfingers 7.12502
rthumb 13.4241 708.147
lclavicle 1.26725e-014 3.18055e-014
lhumerus -428.637 -7.15262 -262.814
lradius 78.2993
lwrist 14.6067
lhand -68.7458 -759.464
lfingers 7.12502
lthumb -40.4309 -14.3694
rfemur -76.1812 -52.9051 42.4179
rtibia 118.125
rfoot 400.771 -2.55705
rtoes 16.7497
lfemur -71.1015 51.9886 -53.9455
ltibia 135.551
lfoot 6.061 -5.89337
ltoes 1.49328
210
root 19.9893 1.63802 0.240775 -1255.88 253.124 97.2106
lowerback 60.1139 -0.152673 14.7261
upperback 15.5335 5.46798 1.70324
thorax -2.52197 1.65749 -6.41714
lowerneck 12.3795 16.1185 5.3644
upperneck 5.85809 21.8844 -9.74155
head 1.52052 10.9631 -3.91088
rclavicle -2.76062e-014 5.40694e-014
rhumerus -338.582 40.9107 286.786
rradius 68.2347
rwrist 0.570572
rhand -12.4198 738.128
rfingers 7.12502
rthumb 13.6524 708.596
lclavicle -2.76062e-014 5.40694e-014
lhumerus -429.356 -7.66524 -262.833
lradius 80.0406
lwrist 12.2826
lhand -67.7091 -756.941
lfingers 7.12502
lthumb -39.4552 -11.5531
rfemur -74.7084 -52.6078 41.673
rtibia 117.505
rfoot 399.946 -3.6134
rtoes 16.3968
lfemur -70.9921 52.5016 -53.5123
ltibia 135.56
lfoot 6.17019 -5.9102
ltoes 1.68565
211
root 20.0209 1.62732 0.217272 -1255.83 253.472 96.614
lowerback 60.0797 0.046222 14.3242
upperback 15.6038 5.4174 1.61679
thorax -2.50134 1.61323 -6.33546
lowerneck 12.1323 16.2098 5.50217
upperneck 6.06055 22.0366 -9.76517
head 1.64755 11.0287 -3.89584
rclavicle -1.57847e-014 -7.95139e-014
rhumerus -340.039 40.5897 286.555
rradius 68.7691
rwrist 0.192817
rhand -12.2109 738.508
rfingers 7.12502
rthumb 13.8538 708.99
lclavicle -1.57847e-014 -7.95139e-014
lhumerus -429.757 -8.22763 -263.002
lradius 81.7134
lwrist 9.88027
lhand -66.9787 -754.427
lfingers 7.12502
lthumb -38.7667 -8.84058
rfemur -73.1642 -52.2693 40.8861
rtibia 116.824
rfoot 399.271 -4.62837
rtoes 16.5936
lfemur -70.6982 53.0426 -52.9376
ltibia 135.522
lfoot 6.26537 -5.98143
ltoes 1.99354
212
root 20.0541 1.61608 0.199125 -1255.81 253.827 96.0472
lowerback 59.988 0.185841 13.9963
upperback 15.6863 5.33235 1.49134
thorax -2.4537 1.56423 -6.31411
lowerneck 11.8281 16.3109 5.6171
upperneck 6.38399 22.2035 -9.74443
head 1.81387 11.0955 -3.85431
rclavicle -1.32043e-013 3.18055e-014
rhumerus -341.333 40.3161 286.508
rradius 69.2493
rwrist -0.260021
rhand -12.0187 738.828
rfingers 7.12502
rthumb 14.039 709.322
lclavicle -1.32043e-013 3.18055e-014
lhumerus -429.602 -8.72827 -263.355
lradius 82.9505
lwrist 7.50504
lhand -66.4091 -752.272
lfingers 7.12502
lthumb -38.2293 -6.53596
rfemur -71.6813 -51.8971 40.0951
rtibia 116.111
rfoot 398.734 -5.46182
rtoes 16.6454
lfemur -70.3037 53.5162 -52.3492
ltibia 135.426
lfoot 6.34848 -6.04577
ltoes 2.404
213
root 20.0882 1.60408 0.184628 -1255.78 254.177 95.466
lowerback 59.8817 0.262721 13.7556
upperback 15.7636 5.22534 1.33317
thorax -2.39808 1.51422 -6.35525
lowerneck 11.6079 16.4088 5.6272
upperneck 6.60556 22.3442 -9.67249
head 1.91856 11.1516 -3.80023
rclavicle -1.19271e-014 5.08889e-014
rhumerus -342.639 40.0612 286.426
rradius 69.6893
rwrist -0.697499
rhand -11.87 739.065
rfingers 7.12502
rthumb 14.1822 709.569
lclavicle -1.19271e-014 5.08889e-014
lhumerus -428.973 -9.22233 -263.824
lradius 83.874
lwrist 5.34503
lhand -66.1327 -751.108
lfingers 7.12502
lthumb -37.9683 -5.30016
rfemur -70.2118 -51.5121 39.2982
rtibia 115.36
rfoot 398.334 -6.22236
rtoes 17.0155
lfemur -69.7626 53.9658 -51.6686
ltibia 135.296
lfoot 6.44848 -6.1218
ltoes 2.79451
214
root 20.1258 1.59323 0.171866 -1255.82 254.505 94.9577
lowerback 59.7294 0.295579 13.5721
upperback 15.8676 5.09234 1.15672
thorax -2.30395 1.46032 -6.43042
lowerneck 11.4191 16.5088 5.52372
upperneck 6.74215 22.4665 -9.55047
head 1.97397 11.1991 -3.72748
rclavicle 3.76697e-014 1.27222e-014
rhumerus -343.859 39.7999 286.39
rradius 70.0887
rwrist -1.07235
rhand -11.7346 739.272
rfingers 7.12502
rthumb 14.3128 709.785
lclavicle 3.76697e-014 1.27222e-014
lhumerus -427.997 -9.83996 -264.356
lradius 84.8745
lwrist 3.78771
lhand -65.8358 -750.8
lfingers 7.12502
lthumb -37.6879 -4.91662
rfemur -68.7704 -51.1382 38.4867
rtibia 114.561
rfoot 398.072 -6.74552
rtoes 17.2782
lfemur -69.156 54.34 -50.9374
ltibia 135.138
lfoot 6.61362 -6.18308
ltoes 3.30796
